<?xml version="1.0" standalone="no"?>
<!DOCTYPE svg PUBLIC "-//W3C//DTD SVG 1.1//EN" "http://www.w3.org/Graphics/SVG/1.1/DTD/svg11.dtd" >
<svg xmlns="http://www.w3.org/2000/svg">
<metadata></metadata>
<defs>
<font id="zurich_condensed_bt" horiz-adv-x="981" >
<font-face units-per-em="2048" ascent="1638" descent="-410" />
<missing-glyph horiz-adv-x="492" />
<glyph horiz-adv-x="0" />
<glyph unicode="&#xd;" horiz-adv-x="492" />
<glyph unicode=" "  horiz-adv-x="492" />
<glyph unicode="&#x09;" horiz-adv-x="492" />
<glyph unicode="&#xa0;" horiz-adv-x="492" />
<glyph unicode="!" horiz-adv-x="616" d="M197 1475h223l-39 -1125h-143zM215 0v199h191v-199h-191z" />
<glyph unicode="&#x22;" horiz-adv-x="590" d="M94 881v553h117v-553h-117zM377 881v553h119v-553h-119z" />
<glyph unicode="#" horiz-adv-x="1575" d="M104 467l43 123h320l96 272h-342l43 123h344l168 471h146l-166 -471h260l168 471h143l-164 -471h307l-43 -123h-311l-94 -272h330l-43 -123h-332l-166 -469h-145l168 469h-265l-168 -469h-143l166 469h-320zM614 590h263l96 272h-264z" />
<glyph unicode="$" d="M76 416q0 8 1 24.5t1 24.5h178q-2 -22 -2 -59q0 -261 192 -261v539q-155 88 -227 163q-106 111 -106 249q0 150 92 239q88 84 241 97v131h95v-131q331 -16 331 -349v-28h-178v8q0 223 -153 223v-442q169 -92 247 -170q115 -117 115 -266q0 -174 -94.5 -282t-267.5 -126 v-162h-95v162q-370 28 -370 416zM293 1102q0 -118 153 -215v399q-153 -24 -153 -184zM541 146q182 18 182 243q0 143 -182 254v-497z" />
<glyph unicode="%" horiz-adv-x="1315" d="M49 1081q0 369 273 369q272 0 272 -383q0 -356 -272 -356q-273 0 -273 370zM193 1087q0 -258 129 -258t129 258q0 244 -129 244t-129 -244zM293 -25l612 1475h119l-621 -1475h-110zM723 346q0 369 270 369q273 0 273 -383q0 -357 -273 -357q-270 0 -270 371zM864 352 q0 -258 129 -258t129 258q0 244 -129 244t-129 -244z" />
<glyph unicode="&#x26;" horiz-adv-x="1208" d="M80 387q0 147 68 242q73 103 214 123q-115 28 -176 121q-57 87 -57 210q0 199 132 302q119 92 325 92h129v-168h-111q-274 0 -274 -236q0 -252 268 -252h195v234h190v-234h180v-155h-180v-666h-395q-137 0 -188 6q-111 13 -175 60q-145 106 -145 321zM289 420 q0 -150 79 -206q65 -46 224 -46h201v498h-191q-152 0 -224 -47q-89 -57 -89 -199z" />
<glyph unicode="'" horiz-adv-x="305" d="M94 881v553h117v-553h-117z" />
<glyph unicode="(" horiz-adv-x="592" d="M113 598q0 319 215 899h127q-138 -503 -138 -899q0 -405 125 -905h-120q-209 586 -209 905z" />
<glyph unicode=")" horiz-adv-x="592" d="M137 1497h129q213 -575 213 -899q0 -319 -209 -905h-120q124 496 124 905q0 400 -137 899z" />
<glyph unicode="*" d="M117 1081v127l309 -26l-176 252l108 63l134 -278l131 278l110 -63l-176 -252l307 24v-127l-307 27l176 -254l-110 -64l-131 281l-134 -281l-108 64l176 254z" />
<glyph unicode="+" horiz-adv-x="1706" d="M254 553v117h541v551h118v-551h539v-117h-539v-553h-118v553h-541z" />
<glyph unicode="," horiz-adv-x="492" d="M66 -240l104 467h195l-160 -467h-139z" />
<glyph unicode="-" horiz-adv-x="569" d="M68 442v150h434v-150h-434z" />
<glyph unicode="." horiz-adv-x="492" d="M147 0v227h195v-227h-195z" />
<glyph unicode="/" horiz-adv-x="569" d="M-94 -190l598 1687h125l-598 -1687h-125z" />
<glyph unicode="0" d="M90 713q0 236 6 305q16 201 80 289q106 145 316 145q322 0 380 -314q19 -106 19 -388v-74q0 -217 -6 -286q-17 -184 -80 -271q-105 -144 -313 -144q-210 0 -316 144q-64 87 -81 289q-5 68 -5 305zM269 486q5 -156 46 -241q54 -112 174 -112q121 0 175 112q42 84 47 240 q-2 -62 -2 228q0 286 2 228q-5 156 -47 241q-54 112 -175 112q-120 0 -174 -112q-41 -85 -46 -242q3 84 3 -227q0 -308 -3 -227z" />
<glyph unicode="1" d="M215 1057v196q76 37 256 174h141v-1427h-184v1208q-48 -44 -213 -151z" />
<glyph unicode="2" d="M109 0v182l438 627q133 190 133 313q0 81 -51 128.5t-133 47.5q-100 0 -144 -69q-33 -53 -39 -164h-198q0 7 -1 19.5t-1 19.5q0 346 389 346q163 0 260 -76q106 -83 106 -241q0 -208 -204 -492l-338 -471h548v-170h-765z" />
<glyph unicode="3" d="M82 350v27h196q8 -242 189 -242q213 0 213 264q0 265 -266 265h-31v170q279 0 279 237q0 219 -185 219q-180 0 -180 -205h-193v23q0 160 97 251t258 91q385 0 385 -358q0 -320 -248 -347q260 -12 260 -346q0 -424 -381 -424q-187 0 -288 94q-105 96 -105 281z" />
<glyph unicode="4" d="M86 358v207l401 862h250v-913h158v-156h-158v-358h-184v358h-467zM223 512h332l18 766z" />
<glyph unicode="5" d="M117 332h188q15 -207 184 -207q191 0 191 338q0 150 -26 215q-43 106 -167 106q-146 0 -168 -153h-188l14 796h660v-161h-471l-19 -432q88 104 236 104q313 0 313 -461q0 -504 -395 -504q-170 0 -261 94t-91 265z" />
<glyph unicode="6" d="M111 698q0 432 71 576q87 176 316 176q154 0 246 -78q98 -84 98 -235v-13h-191q-12 172 -151 172q-134 0 -177 -153q-22 -79 -22 -262q0 -14 1 -43t1 -43q71 125 219 125q348 0 348 -457q0 -228 -71 -342q-88 -141 -301 -141q-264 0 -344 246q-43 131 -43 472zM307 483 q0 -346 197 -346q184 0 184 330q0 295 -188 295q-193 0 -193 -279z" />
<glyph unicode="7" d="M100 1270v157h736v-163l-367 -1264h-207l383 1270h-545z" />
<glyph unicode="8" d="M104 397q0 303 240 361q-221 63 -221 327q0 173 97.5 269t271.5 96q173 0 269.5 -95.5t96.5 -267.5q0 -269 -221 -329q240 -57 240 -365q0 -190 -96 -301q-102 -117 -289 -117q-189 0 -291 118q-97 112 -97 304zM287 401q0 -272 202 -272q105 0 158 81q45 68 45 179 q0 283 -203 283q-202 0 -202 -271zM301 1065q0 -101 45 -167q52 -77 148 -77q91 0 143 79q45 69 45 165q0 231 -190 231q-191 0 -191 -231z" />
<glyph unicode="9" d="M111 963q0 228 71 342q88 141 301 141q264 0 345 -247q42 -130 42 -472q0 -429 -71 -575q-86 -177 -316 -177q-155 0 -246 79q-98 83 -98 235v12h191q12 -174 151 -174q134 0 177 155q22 79 22 263q0 14 -1 43t-1 43q-70 -125 -219 -125q-348 0 -348 457zM293 958 q0 -294 188 -294q191 0 191 278q0 346 -195 346q-184 0 -184 -330z" />
<glyph unicode=":" horiz-adv-x="518" d="M162 0v227h194v-227h-194zM162 801v227h194v-227h-194z" />
<glyph unicode=";" horiz-adv-x="518" d="M66 -240l104 467h197l-162 -467h-139zM170 801v227h195v-227h-195z" />
<glyph unicode="&#x3c;" horiz-adv-x="1706" d="M264 559v103l1178 483v-127l-1000 -408l1000 -405v-129z" />
<glyph unicode="=" horiz-adv-x="1706" d="M254 360v117h1198v-117h-1198zM254 743v117h1198v-117h-1198z" />
<glyph unicode="&#x3e;" horiz-adv-x="1706" d="M264 76v129l1000 405l-1000 408v127l1178 -483v-103z" />
<glyph unicode="?" horiz-adv-x="807" d="M57 1161q0 166 98 255q93 85 261 85q329 0 329 -364q0 -152 -122 -322q-46 -57 -131 -178q-23 -38 -23 -117v-145h-164v227q0 88 27 129q42 56 123 170q88 131 88 258q0 197 -148 197q-143 0 -149 -274l-182 -1q-7 39 -7 80zM291 0v205h194v-205h-194z" />
<glyph unicode="@" horiz-adv-x="2048" d="M113 522q0 334 200 578q293 358 803 358q343 0 559 -168q262 -204 262 -512q0 -348 -245 -545q-139 -112 -312 -112q-198 0 -198 155q0 4 1 11.5t1 11.5q-104 -178 -297 -178q-314 0 -314 332q0 215 124 375q135 173 345 173q182 0 250 -157l58 121h110l-141 -568 q-12 -48 -12 -80q0 -90 110 -90q99 0 203 88q190 161 190 451q0 288 -220 448q-195 142 -494 142q-338 0 -572 -205q-282 -247 -282 -637q0 -338 247 -534q212 -168 535 -168q354 0 631 188l45 -66q-298 -221 -660 -221q-383 0 -624 185q-303 233 -303 624zM713 446 q0 -229 196 -229q108 0 190 76q76 71 103 180l60 242q-36 190 -207 190q-164 0 -260 -154q-82 -132 -82 -305z" />
<glyph unicode="A" horiz-adv-x="1208" d="M31 0l463 1475h233l451 -1475h-213l-99 358h-522l-102 -358h-211zM393 532h422l-207 713z" />
<glyph unicode="B" horiz-adv-x="1139" d="M145 0v1475h420q436 0 436 -355q0 -301 -247 -352q290 -42 290 -354q0 -222 -117 -322q-108 -92 -335 -92h-447zM328 168h219q152 0 226 54q85 62 85 208q0 264 -299 264h-231v-526zM328 860h198q143 0 209 52q76 58 76 196q0 125 -77 178q-64 43 -197 43h-209v-469z" />
<glyph unicode="C" horiz-adv-x="1098" d="M109 770q0 400 94 553q105 170 364 170q412 0 412 -440h-207v22q0 262 -211 262q-136 0 -199 -102q-43 -69 -54 -265q-3 -58 -3 -272q0 -261 23 -354q52 -209 233 -209q223 0 223 303v17h205v-33q0 -205 -106 -323q-111 -122 -314 -122q-198 0 -307 101q-106 98 -138 327 q-15 110 -15 365z" />
<glyph unicode="D" horiz-adv-x="1155" d="M135 0v1475h354q157 0 225 -11q126 -21 201 -92q100 -94 126 -309q10 -83 10 -342q0 -420 -88 -551q-76 -113 -210 -148q-82 -22 -264 -22h-354zM332 168h207q203 0 262 101.5t59 478.5q0 325 -29 403q-36 98 -114 134q-61 30 -178 30h-207v-1147z" />
<glyph unicode="E" horiz-adv-x="950" d="M135 0v1475h737v-162h-542v-473h526v-166h-526v-512h542v-162h-737z" />
<glyph unicode="F" horiz-adv-x="934" d="M135 0v1475h709v-162h-514v-473h489v-166h-489v-674h-195z" />
<glyph unicode="G" horiz-adv-x="1163" d="M104 764q0 403 99 559q110 174 389 174q206 0 320 -106q118 -110 118 -314v-4h-200q-4 266 -244 266q-203 0 -258 -215q-23 -90 -23 -383q0 -285 30 -388q62 -212 273 -212q87 0 234 29v436h-205v170h397v-739q-262 -62 -428 -62q-254 0 -368 125q-90 99 -119 318 q-15 117 -15 346z" />
<glyph unicode="H" horiz-adv-x="1165" d="M135 0v1475h195v-631h506v631h194v-1475h-194v674h-506v-674h-195z" />
<glyph unicode="I" horiz-adv-x="465" d="M133 0v1475h199v-1475h-199z" />
<glyph unicode="J" horiz-adv-x="979" d="M66 403q0 10 1 30t1 30h204q-2 -24 -2 -64q0 -256 181 -256q152 0 192 150q16 61 16 278v904h193v-1026q0 -234 -66 -332q-95 -142 -333 -142q-207 0 -301 112q-86 104 -86 316z" />
<glyph unicode="K" horiz-adv-x="989" d="M137 0v1475h189v-621l438 621h213l-471 -662l506 -813h-221l-465 766v-766h-189z" />
<glyph unicode="L" horiz-adv-x="868" d="M135 0v1475h193v-1305h503v-170h-696z" />
<glyph unicode="M" horiz-adv-x="1630" d="M135 0v1475h314l317 -1014q15 -49 61 -234q16 80 56 236l309 1012h303v-1475h-180v1055q0 159 4 309l-416 -1364h-166l-426 1378q6 -158 6 -364v-1014h-182z" />
<glyph unicode="N" horiz-adv-x="1262" d="M135 0v1475h277l542 -1305q-8 142 -8 270v1035h180v-1475h-264l-567 1341q16 -190 16 -278v-1063h-176z" />
<glyph unicode="O" horiz-adv-x="1167" d="M115 737q0 435 75 566q111 194 394 194q231 0 348 -133q86 -98 110 -309q11 -94 11 -334q0 -417 -76 -549q-113 -197 -393 -197q-227 0 -348 134q-86 96 -110 301q-11 91 -11 327zM313 737q0 -357 41 -450q64 -146 228 -146q197 0 251 218q21 88 21 378t-21 377 q-53 217 -251 217q-138 0 -201 -96q-51 -77 -64 -243q-4 -57 -4 -255z" />
<glyph unicode="P" horiz-adv-x="1028" d="M135 0v1475h402q230 0 325 -87q99 -92 99 -319q0 -206 -87 -305q-92 -105 -294 -105h-250v-659h-195zM330 825h153q156 0 214 45q67 52 67 201q0 130 -49 183q-52 55 -180 55h-205v-484z" />
<glyph unicode="Q" horiz-adv-x="1167" d="M113 737q0 208 6 288q15 187 67 278q111 194 394 194q229 0 348 -133q84 -94 109 -285q12 -94 12 -311v-55q0 -214 -10 -294q-22 -181 -103 -269q102 20 184 20h68v-170h-340q-42 0 -127.5 -12.5t-128.5 -12.5q-241 0 -361 134q-85 95 -108 301q-10 88 -10 327zM311 737 q0 -360 39 -450q63 -146 230 -146q140 0 204 97q48 73 61 225q5 59 5 235v39q0 354 -41 449q-63 145 -229 145q-141 0 -203 -96q-48 -75 -61 -224q-5 -59 -5 -235v-39z" />
<glyph unicode="R" horiz-adv-x="1110" d="M131 0v1475h387q215 0 321 -69q130 -85 130 -286q0 -289 -254 -360q130 -14 179 -99q40 -68 40 -210q0 -25 -1 -75t-1 -75q0 -168 39 -301h-201q-30 98 -32 329q0 42 -3 128q-3 110 -34 157q-40 60 -142 60h-233v-674h-195zM326 834h143q151 0 223 55q82 62 82 207 q0 225 -229 225h-219v-487z" />
<glyph unicode="S" horiz-adv-x="1079" d="M76 381q0 8 1 22.5t1 22.5h213v-27q0 -270 219 -270q104 0 174 60q74 63 74 165q0 126 -274 298q-25 15 -60 38q-172 110 -231 173q-99 108 -99 259q0 179 132 282q120 95 304 95q412 0 412 -387v-37h-203v31q0 240 -217 240q-94 0 -159 -53q-70 -56 -70 -148 q0 -142 294 -330l83 -53q144 -94 198 -154q88 -97 88 -225q0 -203 -126 -309q-117 -99 -324 -99q-430 0 -430 406z" />
<glyph unicode="T" horiz-adv-x="958" d="M25 1323v152h909v-152h-352v-1323h-195v1323h-362z" />
<glyph unicode="U" horiz-adv-x="1186" d="M135 541v934h184v-953q0 -193 43 -264q73 -121 230 -121q159 0 231 121q41 69 41 262v955h187v-924q0 -282 -87 -414q-107 -162 -372 -162q-251 0 -371 166q-86 119 -86 400z" />
<glyph unicode="V" horiz-adv-x="1069" d="M0 1475h221l264 -1100q1 -6 5 -20q33 -140 45 -205q6 29 21 100t28 123l280 1102h205l-418 -1475h-233z" />
<glyph unicode="W" horiz-adv-x="1821" d="M18 1475h197l252 -1115q17 -73 35 -231q18 101 43 216q1 4 2 9l266 1121h205l254 -1102q21 -93 37 -244q10 82 45 233l256 1113h190l-377 -1475h-231l-217 924q-35 150 -64 397q-12 -117 -73 -390l-2 -9l-224 -922h-235z" />
<glyph unicode="X" horiz-adv-x="1100" d="M12 0l414 772l-381 703h223l281 -560l297 560h209l-385 -699l417 -776h-227l-313 631l-314 -631h-221z" />
<glyph unicode="Y" horiz-adv-x="977" d="M-10 1475h223l281 -695l294 695h197l-410 -875v-600h-198v618z" />
<glyph unicode="Z" horiz-adv-x="930" d="M35 0v201l672 1112h-627v162h829v-185l-676 -1120h676v-170h-874z" />
<glyph unicode="[" horiz-adv-x="592" d="M188 -324v1799h324v-119h-166v-1561h166v-119h-324z" />
<glyph unicode="\" horiz-adv-x="569" d="M-70 1497h125l598 -1687h-125z" />
<glyph unicode="]" horiz-adv-x="592" d="M80 -205h166v1561h-166v119h323v-1799h-323v119z" />
<glyph unicode="^" horiz-adv-x="2048" d="M422 901l520 557h162l520 -557h-158l-442 438l-442 -438h-160z" />
<glyph unicode="_" horiz-adv-x="1024" d="M0 -365h1024v-118h-1024v118z" />
<glyph unicode="`" horiz-adv-x="1024" d="M250 1511h201l204 -348h-120z" />
<glyph unicode="a" horiz-adv-x="920" d="M76 305q0 357 456 357h99v51q0 107 -26 152q-35 61 -132 61q-188 0 -188 -156v-10h-189v20q0 273 365 273q346 0 346 -299v-480q0 -142 18 -274h-176l-12 129q-108 -139 -266 -139q-136 0 -217 91q-78 87 -78 224zM252 322q0 -74 44 -124q45 -53 118 -53q219 0 219 314 v80q-174 0 -251 -28q-130 -48 -130 -189z" />
<glyph unicode="b" horiz-adv-x="961" d="M100 0q10 72 10 184v1291h178v-560q88 140 246 140q335 0 335 -553q0 -529 -344 -529q-164 0 -235 121l-23 -94h-167zM286 522q0 -171 25 -258q45 -155 173 -155q137 0 180 145q23 76 23 258q0 393 -192 393q-209 0 -209 -383z" />
<glyph unicode="c" horiz-adv-x="924" d="M90 512q0 250 68 374q90 165 317 165q155 0 256 -80q109 -87 109 -238v-22h-174q0 190 -181 190q-140 0 -188 -135q-27 -78 -27 -254q0 -169 26 -249q46 -138 179 -138q92 0 144 67q46 61 49 156h177q-3 -175 -98 -273q-98 -100 -272 -100q-227 0 -317 164 q-68 123 -68 373z" />
<glyph unicode="d" horiz-adv-x="961" d="M86 502q0 553 336 553q158 0 246 -140v560h178v-1291q0 -124 8 -182h-174l-10 100q-96 -125 -246 -125q-338 0 -338 525zM266 518q0 -182 24 -261q44 -148 181 -148q127 0 171 150q26 86 26 253t-28 251q-47 142 -179 142q-195 0 -195 -387z" />
<glyph unicode="e" horiz-adv-x="924" d="M90 522q0 245 70 368q91 161 315 161q200 0 289 -111q80 -101 80 -307v-160h-572v-59q0 -289 203 -289q166 0 193 197h176q-8 -165 -106 -256t-263 -91q-232 0 -320 167q-65 122 -65 380zM273 606h397v88q0 236 -189 236q-202 0 -208 -324z" />
<glyph unicode="f" horiz-adv-x="526" d="M8 901v127h144v242q0 125 71 174q39 27 100 40t150 13h45v-139q-124 -3 -158 -41.5t-34 -165.5v-123h192v-127h-192v-901h-174v901h-144z" />
<glyph unicode="g" horiz-adv-x="967" d="M86 528q0 527 340 527q153 0 248 -125l10 98h178q-10 -70 -10 -182v-901q0 -163 -59 -238q-85 -108 -297 -108q-151 0 -240 67q-100 74 -106 219h200q2 -69 41 -111t107 -42q109 0 147 67q29 50 29 170v148q-107 -142 -246 -142q-206 0 -287 186q-55 128 -55 367z M268 518q0 -165 26 -249q45 -144 173 -144q215 0 215 393q0 173 -27 259q-47 147 -182 147q-137 0 -181 -146q-24 -79 -24 -260z" />
<glyph unicode="h" horiz-adv-x="948" d="M115 0v1475h176v-566q108 144 274 144q128 0 201.5 -74.5t73.5 -202.5v-776h-178v657q0 126 -24 180q-38 81 -146 81q-201 0 -201 -324v-594h-176z" />
<glyph unicode="i" horiz-adv-x="428" d="M129 0v1028h170v-1028h-170zM129 1286v189h170v-189h-170z" />
<glyph unicode="j" horiz-adv-x="438" d="M8 -254h23q63 0 84.5 23.5t21.5 87.5v1171h170v-1196q0 -138 -59.5 -186.5t-167.5 -48.5q-36 0 -72 6v143zM137 1286v189h170v-189h-170z" />
<glyph unicode="k" horiz-adv-x="872" d="M117 0v1475h176v-854l313 407h197l-348 -426l417 -602h-215l-364 553v-553h-176z" />
<glyph unicode="l" horiz-adv-x="399" d="M111 0v1475h176v-1475h-176z" />
<glyph unicode="m" horiz-adv-x="1497" d="M104 1028h180l8 -119q104 144 272 144q202 0 264 -172q91 172 285 172q128 0 200 -74t72 -203v-776h-176v657q0 127 -24 180q-37 81 -146 81q-200 0 -200 -324v-594h-178v657q0 126 -24 180q-38 81 -146 81q-201 0 -201 -324v-594h-176v866q0 64 -10 162z" />
<glyph unicode="n" horiz-adv-x="948" d="M104 1028h180l8 -119q104 144 272 144q128 0 201.5 -74.5t73.5 -202.5v-776h-178v657q0 126 -24 180q-38 81 -146 81q-201 0 -201 -324v-594h-176v866q0 64 -10 162z" />
<glyph unicode="o" horiz-adv-x="950" d="M88 516q0 247 70 372q91 163 317 163q227 0 317 -164q68 -123 68 -373q0 -249 -68 -374q-91 -165 -317 -165q-228 0 -319 165q-68 125 -68 376zM268 514q0 -169 27 -250q46 -139 180 -139q132 0 178 138q27 81 27 249q0 170 -26 250q-46 139 -179 139q-132 0 -179 -138 q-28 -83 -28 -249z" />
<glyph unicode="p" horiz-adv-x="961" d="M104 1028h181l10 -98q95 125 242 125q200 0 280 -175q55 -122 55 -352q0 -553 -335 -553q-158 0 -246 142v-506h-178v1235q0 130 -9 182zM289 510q0 -385 211 -385q190 0 190 393q0 181 -23 259q-44 147 -180 147q-128 0 -173 -156q-25 -86 -25 -258z" />
<glyph unicode="q" horiz-adv-x="961" d="M86 528q0 527 338 527q149 0 244 -125l10 98h176q-8 -58 -8 -182v-1235h-178v506q-90 -142 -246 -142q-336 0 -336 553zM268 518q0 -393 193 -393q209 0 209 385q0 172 -25 259q-45 155 -174 155q-136 0 -180 -147q-23 -78 -23 -259z" />
<glyph unicode="r" horiz-adv-x="592" d="M98 1030h176l17 -135q58 160 258 160q6 0 16.5 -1t16.5 -1v-181q-8 0 -22.5 1t-22.5 1q-134 0 -190 -58.5t-56 -192.5v-623h-176v856q0 14 -11 118z" />
<glyph unicode="s" horiz-adv-x="877" d="M76 313h192q6 -192 174 -192q70 0 116 33q52 37 52 104q0 88 -149 164l-187 96q-184 94 -184 242q0 143 110 223q98 72 246 72q144 0 234 -64q104 -73 104 -211v-18h-188q0 162 -166 162q-63 0 -107 -32q-49 -36 -49 -97q0 -73 105 -125l170 -84q123 -61 175 -112 q77 -76 77 -185q0 -152 -109 -237q-100 -77 -256 -77q-358 0 -360 338z" />
<glyph unicode="t" horiz-adv-x="584" d="M14 901v127h156v207l176 84v-291h205v-127h-205v-616q0 -77 21 -108q26 -38 98 -38q5 0 32 2t48 2h6l-1 -133q-82 -18 -144 -18q-129 0 -182.5 51t-53.5 180v678h-156z" />
<glyph unicode="u" horiz-adv-x="948" d="M106 252v776h179v-655q0 -126 24 -179q37 -81 146 -81q200 0 200 321v594h176v-866q0 -42 10 -162h-179l-9 121q-105 -146 -272 -146q-128 0 -201.5 74.5t-73.5 202.5z" />
<glyph unicode="v" horiz-adv-x="901" d="M18 1028h205l162 -592q40 -145 64 -311q33 143 73 280l9 30l165 593h185l-322 -1028h-219z" />
<glyph unicode="w" horiz-adv-x="1470" d="M20 1028h183l139 -592q38 -162 55 -288q21 97 68 288l166 592h211l162 -604q8 -30 36 -166l23 -110q14 101 59 284l146 596h180l-272 -1028h-222l-170 660q-18 69 -53 253q-15 -85 -53 -254l-174 -659h-217z" />
<glyph unicode="x" horiz-adv-x="915" d="M12 0l328 549l-297 479h203l209 -362l215 362h192l-311 -487l350 -541h-207l-254 424l-233 -424h-195z" />
<glyph unicode="y" horiz-adv-x="930" d="M20 1028h207l246 -813l244 813h190l-473 -1417h-174l113 389z" />
<glyph unicode="z" horiz-adv-x="696" d="M25 0v164l450 731h-424v133h623v-133l-469 -758h469v-137h-649z" />
<glyph unicode="{" horiz-adv-x="1024" d="M172 467v127q8 0 22.5 -1t22.5 -1q140 0 195 69q49 62 49 207v244q0 121 11 172q21 97 89 141q80 52 262 52h35v-127q-8 0 -22.5 1t-22.5 1q-129 0 -172 -58q-35 -49 -35 -186v-242q0 -146 -32 -213q-42 -88 -166 -123q124 -33 166 -122q32 -67 32 -213v-242 q0 -139 37 -187q43 -55 176 -55h39v-125h-35q-183 0 -262 52q-68 45 -88 141q-12 53 -12 172v244q0 144 -49 206q-55 68 -195 68q-8 0 -22.5 -1t-22.5 -1z" />
<glyph unicode="|" horiz-adv-x="1024" d="M449 -483v2048h126v-2048h-126z" />
<glyph unicode="}" horiz-adv-x="1024" d="M166 -289q8 0 22.5 -1t22.5 -1q129 0 172 60q35 48 35 186v240q0 146 32 213q42 89 166 122q-124 35 -166 123q-32 67 -32 213v242q0 139 -37 187q-44 57 -176 57h-39v125h35q183 0 264 -52q67 -43 87 -141q11 -52 11 -172v-244q0 -145 50 -207q56 -69 196 -69 q8 0 22.5 1t22.5 1v-127q-8 0 -22.5 1t-22.5 1q-140 0 -196 -69q-50 -62 -50 -207v-242q0 -121 -11 -173q-20 -98 -87 -143q-74 -49 -258 -49h-41v125z" />
<glyph unicode="~" horiz-adv-x="1706" d="M178 461v133q209 145 387 145q106 0 291 -65q10 -3 44 -16q158 -58 245 -58q159 0 385 158v-131q-202 -144 -387 -144q-83 0 -191 35q-7 2 -87 31q-201 72 -302 72q-157 0 -385 -160z" />
<glyph unicode="&#xa0;" />
<glyph unicode="&#xa1;" horiz-adv-x="616" d="M197 0l41 1124h143l39 -1124h-223zM215 1276v199h191v-199h-191z" />
<glyph unicode="&#xa2;" d="M111 512q0 250 69 374q90 165 318 165q76 0 157 -25l60 148h92l-78 -187q135 -99 135 -248q0 -5 -1 -14t-1 -14h-157q-4 103 -38 130l-284 -681q47 -35 115 -35q96 0 150 65q49 59 53 158h167q-3 -175 -99.5 -274t-270.5 -99q-94 0 -179 33l-63 -153h-92l84 196 q-137 124 -137 461zM285 520q0 -206 37 -287l271 654q-40 14 -85 14q-144 0 -193 -128q-30 -78 -30 -253z" />
<glyph unicode="&#xa3;" d="M84 0v166h145v516h-145v158h145v149q0 231 58 320q95 145 303 145q150 0 233.5 -86.5t83.5 -237.5v-6h-198q-13 168 -144 168q-153 0 -153 -217v-235h284v-158h-284v-516h493v-166h-821z" />
<glyph unicode="&#xa4;" horiz-adv-x="1241" d="M86 424l207 205q-88 116 -88 256t88 256l-207 205l72 73l207 -207q119 91 256 91q141 0 260 -91l204 207l72 -73l-205 -205q86 -114 86 -256q0 -144 -86 -256l205 -205l-72 -74l-204 207q-114 -88 -260 -88q-145 0 -256 88l-207 -207zM309 887q0 -132 91 -224t223 -92 q130 0 221.5 92.5t91.5 223.5q0 130 -91.5 221.5t-221.5 91.5t-222 -91.5t-92 -221.5z" />
<glyph unicode="&#xa5;" horiz-adv-x="956" d="M6 1427h207l274 -673l287 673h187l-203 -432h174v-108h-225l-95 -182h320v-109h-365v-596h-186v596h-358v109h311l-84 182h-227v108h176z" />
<glyph unicode="&#xa6;" horiz-adv-x="1024" d="M449 -350v758h126v-758h-126zM449 674v758h126v-758h-126z" />
<glyph unicode="&#xa7;" d="M152 745q0 123 215 259q-172 96 -172 245q0 125 109 192q90 56 224 56q146 0 234 -37v-129q-141 45 -240 45q-170 0 -170 -116q0 -92 192 -184q25 -12 68 -34q207 -106 207 -237q0 -155 -207 -264q107 -64 148 -109q65 -70 65 -166q0 -145 -107 -222q-94 -67 -245 -67 q-169 0 -285 54v147q151 -57 275 -57q211 0 211 135q0 67 -108 136q-26 17 -163 85q-124 62 -169 100q-82 70 -82 168zM319 762q0 -81 175 -160q165 92 165 178q0 77 -180 152q-160 -96 -160 -170z" />
<glyph unicode="&#xa8;" horiz-adv-x="1024" d="M256 1223v209h182v-209h-182zM586 1223v209h182v-209h-182z" />
<glyph unicode="&#xa9;" horiz-adv-x="1706" d="M119 725q0 219 126 408t327 273q132 54 280 54q309 0 524 -215q211 -211 211 -520q0 -310 -211 -516q-224 -219 -524 -219q-298 0 -515.5 216.5t-217.5 518.5zM207 725q0 -264 189.5 -454.5t455.5 -190.5q267 0 463 192q186 182 186 453q0 270 -187.5 458.5t-461.5 188.5 q-270 0 -453 -186q-192 -195 -192 -461zM465 721q0 196 97 321q107 136 298 136q130 0 222 -68q100 -74 112 -199h-129q-32 164 -209 164q-133 0 -197 -116q-51 -91 -51 -236q0 -140 53 -231q65 -113 195 -113q187 0 219 182h129q-12 -135 -117 -214q-98 -73 -237 -73 q-187 0 -291 133q-94 121 -94 314z" />
<glyph unicode="&#xaa;" horiz-adv-x="690" d="M57 967q0 250 342 250h74v36q0 77 -21 109q-26 39 -98 39q-141 0 -141 -109v-6h-141v14q0 191 274 191q260 0 260 -209v-336q0 -102 12 -192h-131l-10 90q-76 -96 -198 -96q-99 0 -160.5 60.5t-61.5 158.5zM188 979q0 -53 35 -88t88 -35q164 0 164 219v55 q-128 0 -185 -18q-102 -33 -102 -133z" />
<glyph unicode="&#xab;" horiz-adv-x="825" d="M66 512l186 397h158l-158 -397l158 -393h-158zM412 512l182 397h164l-164 -397l164 -393h-164z" />
<glyph unicode="&#xac;" horiz-adv-x="1706" d="M254 741v117h1198v-502h-115v385h-1083z" />
<glyph unicode="&#xad;" horiz-adv-x="569" d="M68 442v150h434v-150h-434z" />
<glyph unicode="&#xae;" horiz-adv-x="1706" d="M119 725q0 301 221 524q209 211 512 211q307 0 524 -217q211 -211 211 -518q0 -309 -213 -516q-225 -219 -522 -219q-299 0 -518 219q-215 215 -215 516zM207 725q0 -193 110 -357t288 -239q117 -49 245 -49q270 0 463 190q188 185 188 451q0 275 -186 461 q-190 190 -463 190q-269 0 -451 -184q-194 -196 -194 -463zM561 317v840h311q351 0 351 -231q0 -189 -197 -224l188 -385h-157l-176 365h-179v-365h-141zM702 774h148q227 0 227 141q0 150 -231 150h-144v-291z" />
<glyph unicode="&#xaf;" horiz-adv-x="1024" d="M264 1262v133h498v-133h-498z" />
<glyph unicode="&#xb0;" horiz-adv-x="674" d="M55 1171q0 119 82 201t201 82q118 0 200.5 -82.5t82.5 -200.5t-83.5 -200t-201.5 -82q-119 0 -200 81.5t-81 200.5zM135 1171q0 -85 59 -143.5t144 -58.5t143 58.5t58 143.5t-58 143t-143 58t-144 -58.5t-59 -142.5z" />
<glyph unicode="&#xb1;" horiz-adv-x="1706" d="M254 41v117h1198v-117h-1198zM254 719v117h541v344h118v-344h539v-117h-539v-344h-118v344h-541z" />
<glyph unicode="&#xb2;" horiz-adv-x="647" d="M72 571v109l288 377q89 117 89 188q0 105 -121 105q-112 0 -121 -139l-131 -1q0 4 -1 11.5t-1 11.5q0 209 258 209q103 0 167 -43q74 -50 74 -148q0 -124 -135 -295l-223 -282h363v-103h-506z" />
<glyph unicode="&#xb3;" horiz-adv-x="647" d="M53 782v15h131q4 -144 123 -144q142 0 142 158t-177 158h-20v102q184 0 184 143q0 132 -121 132q-118 0 -118 -123h-127v14q0 99 68 154q63 51 165 51q254 0 254 -215q0 -192 -163 -209q171 -6 171 -207q0 -254 -252 -254q-260 0 -260 225z" />
<glyph unicode="&#xb4;" horiz-adv-x="1024" d="M369 1163l204 348h201l-285 -348h-120z" />
<glyph unicode="&#xb6;" horiz-adv-x="1024" d="M76 1130q0 166 116 261q108 88 277 88h479v-78h-125v-1401h-94v1401h-182v-1401h-96v782q-164 8 -265 94q-110 94 -110 254z" />
<glyph unicode="&#xb7;" horiz-adv-x="492" d="M127 713q0 48 32.5 81t80.5 33q49 0 81.5 -32.5t32.5 -81.5t-32.5 -81t-81.5 -32t-81 32t-32 81z" />
<glyph unicode="&#xb8;" horiz-adv-x="1024" d="M258 -326q171 -39 248 -39q119 0 119 82q0 86 -131 86q-9 0 -27 -1h-27v198h76v-102h29q223 0 223 -181q0 -188 -250 -188q-105 0 -260 45v100z" />
<glyph unicode="&#xb9;" horiz-adv-x="647" d="M141 1206v117q47 20 170 104h95v-856h-123l-1 725q-26 -25 -141 -90z" />
<glyph unicode="&#xba;" horiz-adv-x="713" d="M66 1114q0 177 56 265q69 110 234 110q166 0 235 -109q54 -87 54 -266q0 -180 -54 -267q-68 -110 -235 -110q-168 0 -236 110q-54 87 -54 267zM201 1114q0 -120 22 -178q35 -94 133 -94q97 0 132 93q22 58 22 177q0 121 -21 178q-34 94 -133 94q-155 0 -155 -270z" />
<glyph unicode="&#xbb;" horiz-adv-x="825" d="M66 119l163 393l-163 397h163l185 -397l-185 -393h-163zM416 119l155 393l-155 397h155l187 -397l-187 -393h-155z" />
<glyph unicode="&#xbc;" horiz-adv-x="1579" d="M135 1329q53 23 160 96h90v-798h-117v676q-30 -18 -129 -82l-3 -2zM276 -25l904 1475h120l-903 -1475h-121zM1014 201v116l254 482h157v-510h99v-88h-99v-201h-116v201h-295zM1102 287h209l10 428z" />
<glyph unicode="&#xbd;" horiz-adv-x="1579" d="M135 1329q53 23 160 96h90v-798h-117v676q-30 -18 -129 -82l-3 -2zM276 -25l904 1475h120l-903 -1475h-121zM1028 0v102l277 351q84 106 84 176q0 98 -117 98q-106 0 -115 -131h-125v22q0 193 244 193q231 0 231 -176q0 -117 -129 -277l-213 -264h346v-94h-483z" />
<glyph unicode="&#xbe;" horiz-adv-x="1579" d="M51 823v15l125 -1q4 -135 119 -135q133 0 133 148q0 147 -168 147h-18v97q174 0 174 133q0 123 -115 123t-115 -115h-120v12q0 94 66 145q60 46 157 46q243 0 243 -201q0 -178 -157 -193q164 -6 164 -194q0 -238 -240 -238q-248 0 -248 211zM276 -25l904 1475h120 l-903 -1475h-121zM1014 201v116l254 482h157v-510h99v-88h-99v-201h-116v201h-295zM1102 287h209l10 428z" />
<glyph unicode="&#xbf;" horiz-adv-x="807" d="M76 338q0 150 123 321q47 58 133 179q20 33 20 100v162h164v-228q0 -87 -27 -129q-41 -56 -120 -169q-90 -135 -90 -259q0 -196 147 -196q142 0 150 274h184q4 -30 4 -80q0 -165 -94.5 -252.5t-261.5 -87.5q-332 0 -332 365zM336 1270v205h194v-205h-194z" />
<glyph unicode="&#xc0;" horiz-adv-x="1208" d="M31 0l463 1475h233l451 -1475h-213l-99 358h-522l-102 -358h-211zM342 1957h201l204 -348h-120zM393 532h422l-207 713z" />
<glyph unicode="&#xc1;" horiz-adv-x="1208" d="M31 0l463 1475h233l451 -1475h-213l-99 358h-522l-102 -358h-211zM393 532h422l-207 713zM461 1609l204 348h201l-285 -348h-120z" />
<glyph unicode="&#xc2;" horiz-adv-x="1208" d="M31 0l463 1475h233l451 -1475h-213l-99 358h-522l-102 -358h-211zM309 1609l197 348h196l197 -348h-123l-172 230l-174 -230h-121zM393 532h422l-207 713z" />
<glyph unicode="&#xc3;" horiz-adv-x="1208" d="M31 0l463 1475h233l451 -1475h-213l-99 358h-522l-102 -358h-211zM332 1656q35 203 188 203q28 0 47 -6l91 -29q31 -10 46 -10q67 0 90 74h82q-37 -209 -182 -209q-28 0 -61 10l-89 27q-26 8 -46 8q-60 0 -84 -68h-82zM393 532h422l-207 713z" />
<glyph unicode="&#xc4;" horiz-adv-x="1208" d="M31 0l463 1475h233l451 -1475h-213l-99 358h-522l-102 -358h-211zM348 1669v209h182v-209h-182zM393 532h422l-207 713zM678 1669v209h182v-209h-182z" />
<glyph unicode="&#xc5;" horiz-adv-x="1208" d="M31 0l461 1462h237l449 -1462h-213l-99 358h-522l-102 -358h-211zM385 1747q0 94 64.5 159.5t158.5 65.5q96 0 161 -64.5t65 -160.5t-65 -159.5t-161 -63.5q-95 0 -159 64t-64 159zM393 532h422l-207 713zM487 1747q0 -50 35.5 -85.5t85.5 -35.5q51 0 87 35t36 86 q0 52 -35.5 87.5t-87.5 35.5t-86.5 -35.5t-34.5 -87.5z" />
<glyph unicode="&#xc6;" horiz-adv-x="1548" d="M-12 0l547 1475h935v-162h-632l69 -473h563v-166h-542l78 -512h464v-162h-624l-49 356h-506l-129 -356h-174zM350 516h422l-115 813z" />
<glyph unicode="&#xc7;" horiz-adv-x="1098" d="M109 770q0 400 94 553q105 170 364 170q412 0 412 -440h-207v22q0 262 -211 262q-136 0 -199 -102q-43 -69 -54 -265q-3 -58 -3 -272q0 -261 23 -354q52 -209 233 -209q223 0 223 303v17h205v-33q0 -205 -106 -323q-111 -122 -314 -122q-198 0 -307 101q-106 98 -138 327 q-15 110 -15 365zM295 -326q171 -39 248 -39q119 0 119 82q0 86 -131 86q-9 0 -27 -1h-27v198h76v-102h29q223 0 223 -181q0 -188 -250 -188q-105 0 -260 45v100z" />
<glyph unicode="&#xc8;" horiz-adv-x="950" d="M135 0v1475h737v-162h-542v-473h526v-166h-526v-512h542v-162h-737zM242 1957h201l204 -348h-120z" />
<glyph unicode="&#xc9;" horiz-adv-x="950" d="M135 0v1475h737v-162h-542v-473h526v-166h-526v-512h542v-162h-737zM361 1609l204 348h201l-285 -348h-120z" />
<glyph unicode="&#xca;" horiz-adv-x="950" d="M135 0v1475h737v-162h-542v-473h526v-166h-526v-512h542v-162h-737zM209 1609l197 348h196l197 -348h-123l-172 230l-174 -230h-121z" />
<glyph unicode="&#xcb;" horiz-adv-x="950" d="M135 0v1475h737v-162h-542v-473h526v-166h-526v-512h542v-162h-737zM248 1669v209h182v-209h-182zM578 1669v209h182v-209h-182z" />
<glyph unicode="&#xcc;" horiz-adv-x="465" d="M-29 1957h201l204 -348h-120zM133 0v1475h199v-1475h-199z" />
<glyph unicode="&#xcd;" horiz-adv-x="465" d="M90 1609l204 348h201l-285 -348h-120zM133 0v1475h199v-1475h-199z" />
<glyph unicode="&#xce;" horiz-adv-x="465" d="M-62 1609l197 348h196l197 -348h-123l-172 230l-174 -230h-121zM133 0v1475h199v-1475h-199z" />
<glyph unicode="&#xcf;" horiz-adv-x="465" d="M-23 1669v209h182v-209h-182zM133 0v1475h199v-1475h-199zM307 1669v209h182v-209h-182z" />
<glyph unicode="&#xd0;" horiz-adv-x="1163" d="M104 764q0 403 99 559q110 174 389 174q206 0 320 -106q118 -110 118 -314v-4h-200q-4 266 -244 266q-203 0 -258 -215q-23 -90 -23 -383q0 -285 30 -388q62 -212 273 -212q87 0 234 29v436h-205v170h397v-739q-262 -62 -428 -62q-254 0 -368 125q-90 99 -119 318 q-15 117 -15 346zM312 1922l102 1q24 -140 168 -140q145 0 168 140l102 -1q-17 -278 -270 -278t-270 278z" />
<glyph unicode="&#xd1;" horiz-adv-x="1262" d="M135 0v1475h277l542 -1305q-8 142 -8 270v1035h180v-1475h-264l-567 1341q16 -190 16 -278v-1063h-176zM359 1656q35 203 188 203q28 0 47 -6l91 -29q31 -10 46 -10q67 0 90 74h82q-37 -209 -182 -209q-28 0 -61 10l-89 27q-26 8 -46 8q-60 0 -84 -68h-82z" />
<glyph unicode="&#xd2;" horiz-adv-x="1167" d="M115 737q0 435 75 566q111 194 394 194q231 0 348 -133q86 -98 110 -309q11 -94 11 -334q0 -417 -76 -549q-113 -197 -393 -197q-227 0 -348 134q-86 96 -110 301q-11 91 -11 327zM313 737q0 -357 41 -450q64 -146 228 -146q197 0 251 218q21 88 21 378t-21 377 q-53 217 -251 217q-138 0 -201 -96q-51 -77 -64 -243q-4 -57 -4 -255zM322 1957h201l204 -348h-120z" />
<glyph unicode="&#xd3;" horiz-adv-x="1167" d="M115 737q0 435 75 566q111 194 394 194q231 0 348 -133q86 -98 110 -309q11 -94 11 -334q0 -417 -76 -549q-113 -197 -393 -197q-227 0 -348 134q-86 96 -110 301q-11 91 -11 327zM313 737q0 -357 41 -450q64 -146 228 -146q197 0 251 218q21 88 21 378t-21 377 q-53 217 -251 217q-138 0 -201 -96q-51 -77 -64 -243q-4 -57 -4 -255zM441 1609l204 348h201l-285 -348h-120z" />
<glyph unicode="&#xd4;" horiz-adv-x="1167" d="M115 737q0 435 75 566q111 194 394 194q231 0 348 -133q86 -98 110 -309q11 -94 11 -334q0 -417 -76 -549q-113 -197 -393 -197q-227 0 -348 134q-86 96 -110 301q-11 91 -11 327zM289 1609l197 348h196l197 -348h-123l-172 230l-174 -230h-121zM313 737q0 -357 41 -450 q64 -146 228 -146q197 0 251 218q21 88 21 378t-21 377q-53 217 -251 217q-138 0 -201 -96q-51 -77 -64 -243q-4 -57 -4 -255z" />
<glyph unicode="&#xd5;" horiz-adv-x="1167" d="M115 737q0 435 75 566q111 194 394 194q231 0 348 -133q86 -98 110 -309q11 -94 11 -334q0 -417 -76 -549q-113 -197 -393 -197q-227 0 -348 134q-86 96 -110 301q-11 91 -11 327zM312 1656q35 203 188 203q28 0 47 -6l91 -29q31 -10 46 -10q67 0 90 74h82 q-37 -209 -182 -209q-28 0 -61 10l-89 27q-26 8 -46 8q-60 0 -84 -68h-82zM313 737q0 -357 41 -450q64 -146 228 -146q197 0 251 218q21 88 21 378t-21 377q-53 217 -251 217q-138 0 -201 -96q-51 -77 -64 -243q-4 -57 -4 -255z" />
<glyph unicode="&#xd6;" horiz-adv-x="1167" d="M115 737q0 435 75 566q111 194 394 194q231 0 348 -133q86 -98 110 -309q11 -94 11 -334q0 -417 -76 -549q-113 -197 -393 -197q-227 0 -348 134q-86 96 -110 301q-11 91 -11 327zM313 737q0 -357 41 -450q64 -146 228 -146q197 0 251 218q21 88 21 378t-21 377 q-53 217 -251 217q-138 0 -201 -96q-51 -77 -64 -243q-4 -57 -4 -255zM328 1669v209h182v-209h-182zM658 1669v209h182v-209h-182z" />
<glyph unicode="&#xd7;" horiz-adv-x="1706" d="M301 135l475 475l-475 477l80 82l477 -477l475 477l82 -82l-475 -477l475 -475l-82 -82l-475 475l-477 -475z" />
<glyph unicode="&#xd8;" horiz-adv-x="1167" d="M39 -39l143 223q-67 105 -67 570q0 421 75 549q113 194 394 194q235 0 358 -141l121 174l70 -53l-138 -213q56 -90 56 -486v-104q0 -371 -74 -502q-111 -197 -393 -197q-223 0 -348 131l-130 -192zM305 737q0 -195 15 -341l509 786q-41 149 -241 149q-204 0 -260 -213 q-23 -90 -23 -381zM350 281q67 -140 238 -140q204 0 260 214q24 91 24 382q0 168 -12 320z" />
<glyph unicode="&#xd9;" horiz-adv-x="1186" d="M135 541v934h184v-953q0 -193 43 -264q73 -121 230 -121q159 0 231 121q41 69 41 262v955h187v-924q0 -282 -87 -414q-107 -162 -372 -162q-251 0 -371 166q-86 119 -86 400zM332 1957h201l204 -348h-120z" />
<glyph unicode="&#xda;" horiz-adv-x="1186" d="M135 541v934h184v-953q0 -193 43 -264q73 -121 230 -121q159 0 231 121q41 69 41 262v955h187v-924q0 -282 -87 -414q-107 -162 -372 -162q-251 0 -371 166q-86 119 -86 400zM451 1609l204 348h201l-285 -348h-120z" />
<glyph unicode="&#xdb;" horiz-adv-x="1186" d="M135 541v934h184v-953q0 -193 43 -264q73 -121 230 -121q159 0 231 121q41 69 41 262v955h187v-924q0 -282 -87 -414q-107 -162 -372 -162q-251 0 -371 166q-86 119 -86 400zM299 1609l197 348h196l197 -348h-123l-172 230l-174 -230h-121z" />
<glyph unicode="&#xdc;" horiz-adv-x="1186" d="M135 541v934h184v-953q0 -193 43 -264q73 -121 230 -121q159 0 231 121q41 69 41 262v955h187v-924q0 -282 -87 -414q-107 -162 -372 -162q-251 0 -371 166q-86 119 -86 400zM338 1669v209h182v-209h-182zM668 1669v209h182v-209h-182z" />
<glyph unicode="&#xdd;" horiz-adv-x="465" d="M133 0v1475h199v-1475h-199zM137 1663v221h192v-221h-192z" />
<glyph unicode="&#xde;" horiz-adv-x="1079" d="M76 381q0 8 1 22.5t1 22.5h213v-27q0 -270 219 -270q104 0 174 60q74 63 74 165q0 126 -274 298q-25 15 -60 38q-172 110 -231 173q-99 108 -99 259q0 179 132 282q120 95 304 95q412 0 412 -387v-37h-203v31q0 240 -217 240q-94 0 -159 -53q-70 -56 -70 -148 q0 -142 294 -330l83 -53q144 -94 198 -154q88 -97 88 -225q0 -203 -126 -309q-117 -99 -324 -99q-430 0 -430 406zM287 -326q171 -39 248 -39q119 0 119 82q0 86 -131 86q-9 0 -27 -1h-27v198h76v-102h29q223 0 223 -181q0 -188 -250 -188q-105 0 -260 45v100z" />
<glyph unicode="&#xdf;" horiz-adv-x="1067" d="M113 0v1063q0 249 75 326q106 108 330 108q156 0 253 -61q116 -72 116 -219q0 -115 -96 -232q-16 -19 -52 -57q-63 -66 -63 -99q0 -53 131 -172q18 -16 63 -59q142 -135 142 -287q0 -149 -86.5 -236t-235.5 -87q-307 0 -307 260v18h176q4 -143 121 -143q74 0 116 49 q40 46 40 121q0 70 -51 136q-28 36 -106 104q-3 3 -13 12q-187 167 -187 254q0 60 115 200q6 8 23 28q79 94 79 171q0 158 -190 158q-114 0 -166 -53q-43 -44 -43 -158v-1145h-184z" />
<glyph unicode="&#xe0;" horiz-adv-x="920" d="M76 305q0 357 456 357h99v51q0 107 -26 152q-35 61 -132 61q-188 0 -188 -156v-10h-189v20q0 273 365 273q346 0 346 -299v-480q0 -142 18 -274h-176l-12 129q-108 -139 -266 -139q-136 0 -217 91q-78 87 -78 224zM219 1511h201l204 -348h-120zM252 322q0 -74 44 -124 q45 -53 118 -53q219 0 219 314v80q-174 0 -251 -28q-130 -48 -130 -189z" />
<glyph unicode="&#xe1;" horiz-adv-x="920" d="M76 305q0 357 456 357h99v51q0 107 -26 152q-35 61 -132 61q-188 0 -188 -156v-10h-189v20q0 273 365 273q346 0 346 -299v-480q0 -142 18 -274h-176l-12 129q-108 -139 -266 -139q-136 0 -217 91q-78 87 -78 224zM252 322q0 -74 44 -124q45 -53 118 -53q219 0 219 314 v80q-174 0 -251 -28q-130 -48 -130 -189zM338 1163l204 348h201l-285 -348h-120z" />
<glyph unicode="&#xe2;" horiz-adv-x="920" d="M76 305q0 357 456 357h99v51q0 107 -26 152q-35 61 -132 61q-188 0 -188 -156v-10h-189v20q0 273 365 273q346 0 346 -299v-480q0 -142 18 -274h-176l-12 129q-108 -139 -266 -139q-136 0 -217 91q-78 87 -78 224zM186 1163l197 348h196l197 -348h-123l-172 230 l-174 -230h-121zM252 322q0 -74 44 -124q45 -53 118 -53q219 0 219 314v80q-174 0 -251 -28q-130 -48 -130 -189z" />
<glyph unicode="&#xe3;" horiz-adv-x="920" d="M76 305q0 357 456 357h99v51q0 107 -26 152q-35 61 -132 61q-188 0 -188 -156v-10h-189v20q0 273 365 273q346 0 346 -299v-480q0 -142 18 -274h-176l-12 129q-108 -139 -266 -139q-136 0 -217 91q-78 87 -78 224zM209 1210q35 203 188 203q28 0 47 -6l91 -29 q31 -10 46 -10q67 0 90 74h82q-37 -209 -182 -209q-28 0 -61 10l-89 27q-26 8 -46 8q-60 0 -84 -68h-82zM252 322q0 -74 44 -124q45 -53 118 -53q219 0 219 314v80q-174 0 -251 -28q-130 -48 -130 -189z" />
<glyph unicode="&#xe4;" horiz-adv-x="920" d="M76 305q0 357 456 357h99v51q0 107 -26 152q-35 61 -132 61q-188 0 -188 -156v-10h-189v20q0 273 365 273q346 0 346 -299v-480q0 -142 18 -274h-176l-12 129q-108 -139 -266 -139q-136 0 -217 91q-78 87 -78 224zM225 1223v209h182v-209h-182zM252 322q0 -74 44 -124 q45 -53 118 -53q219 0 219 314v80q-174 0 -251 -28q-130 -48 -130 -189zM555 1223v209h182v-209h-182z" />
<glyph unicode="&#xe5;" horiz-adv-x="920" d="M76 305q0 357 456 357h99v51q0 107 -26 152q-35 61 -132 61q-188 0 -188 -156v-10h-189v20q0 273 365 273q346 0 346 -299v-480q0 -142 18 -274h-176l-12 129q-108 -139 -266 -139q-136 0 -217 91q-78 87 -78 224zM250 322q0 -74 45.5 -125.5t118.5 -51.5q219 0 219 314 v80q-174 0 -252 -28q-131 -48 -131 -189zM252 1337q0 95 64 159.5t159 64.5q96 0 160.5 -64t64.5 -160t-64.5 -160.5t-160.5 -64.5q-95 0 -159 65t-64 160zM354 1335q0 -50 35.5 -85.5t85.5 -35.5q51 0 87 35t36 86q0 52 -35.5 87.5t-87.5 35.5t-86.5 -35.5t-34.5 -87.5z " />
<glyph unicode="&#xe6;" horiz-adv-x="1470" d="M84 301q0 361 459 361h98v51q0 108 -26 153q-34 60 -132 60q-190 0 -190 -156v-10h-191q0 3 1 10t1 10q0 273 367 273q208 0 287 -113q71 111 264 111q369 0 369 -418v-94h-572v-125q0 -136 34 -200q47 -89 169 -89q166 0 195 197h174q-8 -165 -106 -256t-263 -91 q-249 0 -336 191q-109 -176 -301 -176q-139 0 -220 86t-81 225zM262 322q0 -75 40 -124q43 -53 116 -53q225 0 225 314v80q-173 0 -251 -29q-130 -47 -130 -188zM819 662h398v63q0 207 -195 207q-94 0 -148.5 -58t-54.5 -153v-59z" />
<glyph unicode="&#xe7;" horiz-adv-x="924" d="M90 512q0 250 68 374q90 165 317 165q155 0 256 -80q109 -87 109 -238v-22h-174q0 190 -181 190q-140 0 -188 -135q-27 -78 -27 -254q0 -169 26 -249q46 -138 179 -138q92 0 144 67q46 61 49 156h177q-3 -175 -98 -273q-98 -100 -272 -100q-227 0 -317 164 q-68 123 -68 373zM217 -326q171 -39 248 -39q119 0 119 82q0 86 -131 86q-9 0 -27 -1h-27v198h76v-102h29q223 0 223 -181q0 -188 -250 -188q-105 0 -260 45v100z" />
<glyph unicode="&#xe8;" horiz-adv-x="924" d="M90 522q0 245 70 368q91 161 315 161q200 0 289 -111q80 -101 80 -307v-160h-572v-59q0 -289 203 -289q166 0 193 197h176q-8 -165 -106 -256t-263 -91q-232 0 -320 167q-65 122 -65 380zM217 1511h201l204 -348h-120zM273 606h397v88q0 236 -189 236q-202 0 -208 -324z " />
<glyph unicode="&#xe9;" horiz-adv-x="924" d="M90 522q0 245 70 368q91 161 315 161q200 0 289 -111q80 -101 80 -307v-160h-572v-59q0 -289 203 -289q166 0 193 197h176q-8 -165 -106 -256t-263 -91q-232 0 -320 167q-65 122 -65 380zM273 606h397v88q0 236 -189 236q-202 0 -208 -324zM336 1163l204 348h201 l-285 -348h-120z" />
<glyph unicode="&#xea;" horiz-adv-x="924" d="M90 522q0 245 70 368q91 161 315 161q200 0 289 -111q80 -101 80 -307v-160h-572v-59q0 -289 203 -289q166 0 193 197h176q-8 -165 -106 -256t-263 -91q-232 0 -320 167q-65 122 -65 380zM184 1163l197 348h196l197 -348h-123l-172 230l-174 -230h-121zM273 606h397v88 q0 236 -189 236q-202 0 -208 -324z" />
<glyph unicode="&#xeb;" horiz-adv-x="924" d="M90 522q0 245 70 368q91 161 315 161q200 0 289 -111q80 -101 80 -307v-160h-572v-59q0 -289 203 -289q166 0 193 197h176q-8 -165 -106 -256t-263 -91q-232 0 -320 167q-65 122 -65 380zM223 1223v209h182v-209h-182zM273 606h397v88q0 236 -189 236q-202 0 -208 -324z M553 1223v209h182v-209h-182z" />
<glyph unicode="&#xec;" horiz-adv-x="428" d="M-47 1511h201l204 -348h-120zM129 0v1028h170v-1028h-170z" />
<glyph unicode="&#xed;" horiz-adv-x="428" d="M72 1163l204 348h201l-285 -348h-120zM129 0v1028h170v-1028h-170z" />
<glyph unicode="&#xee;" horiz-adv-x="428" d="M-80 1163l197 348h196l197 -348h-123l-172 230l-174 -230h-121zM129 0v1028h170v-1028h-170z" />
<glyph unicode="&#xef;" horiz-adv-x="428" d="M-41 1223v209h182v-209h-182zM129 0v1028h170v-1028h-170zM289 1223v209h182v-209h-182z" />
<glyph unicode="&#xf0;" horiz-adv-x="967" d="M86 528q0 527 340 527q153 0 248 -125l10 98h178q-10 -70 -10 -182v-901q0 -163 -59 -238q-85 -108 -297 -108q-151 0 -240 67q-100 74 -106 219h200q2 -69 41 -111t107 -42q109 0 147 67q29 50 29 170v148q-107 -142 -246 -142q-206 0 -287 186q-55 128 -55 367z M213 1476l102 1q24 -140 168 -140q145 0 168 140l102 -1q-17 -278 -270 -278t-270 278zM268 518q0 -165 26 -249q45 -144 173 -144q215 0 215 393q0 173 -27 259q-47 147 -182 147q-137 0 -181 -146q-24 -79 -24 -260z" />
<glyph unicode="&#xf1;" horiz-adv-x="948" d="M104 1028h180l8 -119q104 144 272 144q128 0 201.5 -74.5t73.5 -202.5v-776h-178v657q0 126 -24 180q-38 81 -146 81q-201 0 -201 -324v-594h-176v866q0 64 -10 162zM203 1210q35 203 188 203q28 0 47 -6l91 -29q31 -10 46 -10q67 0 90 74h82q-37 -209 -182 -209 q-28 0 -61 10l-89 27q-26 8 -46 8q-60 0 -84 -68h-82z" />
<glyph unicode="&#xf2;" horiz-adv-x="950" d="M88 516q0 247 70 372q91 163 317 163q227 0 317 -164q68 -123 68 -373q0 -249 -68 -374q-91 -165 -317 -165q-228 0 -319 165q-68 125 -68 376zM213 1511h201l204 -348h-120zM268 514q0 -169 27 -250q46 -139 180 -139q132 0 178 138q27 81 27 249q0 170 -26 250 q-46 139 -179 139q-132 0 -179 -138q-28 -83 -28 -249z" />
<glyph unicode="&#xf3;" horiz-adv-x="950" d="M88 516q0 247 70 372q91 163 317 163q227 0 317 -164q68 -123 68 -373q0 -249 -68 -374q-91 -165 -317 -165q-228 0 -319 165q-68 125 -68 376zM268 514q0 -169 27 -250q46 -139 180 -139q132 0 178 138q27 81 27 249q0 170 -26 250q-46 139 -179 139q-132 0 -179 -138 q-28 -83 -28 -249zM332 1163l204 348h201l-285 -348h-120z" />
<glyph unicode="&#xf4;" horiz-adv-x="950" d="M88 516q0 247 70 372q91 163 317 163q227 0 317 -164q68 -123 68 -373q0 -249 -68 -374q-91 -165 -317 -165q-228 0 -319 165q-68 125 -68 376zM180 1163l197 348h196l197 -348h-123l-172 230l-174 -230h-121zM268 514q0 -169 27 -250q46 -139 180 -139q132 0 178 138 q27 81 27 249q0 170 -26 250q-46 139 -179 139q-132 0 -179 -138q-28 -83 -28 -249z" />
<glyph unicode="&#xf5;" horiz-adv-x="950" d="M88 516q0 247 70 372q91 163 317 163q227 0 317 -164q68 -123 68 -373q0 -249 -68 -374q-91 -165 -317 -165q-228 0 -319 165q-68 125 -68 376zM203 1210q35 203 188 203q28 0 47 -6l91 -29q31 -10 46 -10q67 0 90 74h82q-37 -209 -182 -209q-28 0 -61 10l-89 27 q-26 8 -46 8q-60 0 -84 -68h-82zM268 514q0 -169 27 -250q46 -139 180 -139q132 0 178 138q27 81 27 249q0 170 -26 250q-46 139 -179 139q-132 0 -179 -138q-28 -83 -28 -249z" />
<glyph unicode="&#xf6;" horiz-adv-x="950" d="M88 516q0 247 70 372q91 163 317 163q227 0 317 -164q68 -123 68 -373q0 -249 -68 -374q-91 -165 -317 -165q-228 0 -319 165q-68 125 -68 376zM219 1223v209h182v-209h-182zM268 514q0 -169 27 -250q46 -139 180 -139q132 0 178 138q27 81 27 249q0 170 -26 250 q-46 139 -179 139q-132 0 -179 -138q-28 -83 -28 -249zM549 1223v209h182v-209h-182z" />
<glyph unicode="&#xf7;" horiz-adv-x="1706" d="M254 553v117h1198v-117h-1198zM739 250q0 48 33.5 81.5t81.5 33.5q47 0 81 -34t34 -81q0 -48 -33.5 -81.5t-81.5 -33.5t-81.5 33.5t-33.5 81.5zM739 971q0 47 34 80.5t81 33.5q48 0 81.5 -33t33.5 -81t-33.5 -81.5t-81.5 -33.5q-49 0 -82 33t-33 82z" />
<glyph unicode="&#xf8;" horiz-adv-x="950" d="M90 512q0 257 69 379q92 160 326 160q180 0 260 -99l74 111l62 -45l-88 -127q67 -124 67 -381q0 -253 -70 -375q-92 -160 -323 -160q-133 0 -227 64l-86 -131l-62 47l94 141q-96 112 -96 416zM270 428q0 -108 25 -164l350 535q-35 104 -166 104q-154 0 -194 -176 q-15 -64 -15 -299zM338 190q48 -65 137 -65q133 0 179 142q26 81 26 253q0 80 -12 178z" />
<glyph unicode="&#xf9;" horiz-adv-x="948" d="M106 252v776h179v-655q0 -126 24 -179q37 -81 146 -81q200 0 200 321v594h176v-866q0 -42 10 -162h-179l-9 121q-105 -146 -272 -146q-128 0 -201.5 74.5t-73.5 202.5zM213 1511h201l204 -348h-120z" />
<glyph unicode="&#xfa;" horiz-adv-x="948" d="M106 252v776h179v-655q0 -126 24 -179q37 -81 146 -81q200 0 200 321v594h176v-866q0 -42 10 -162h-179l-9 121q-105 -146 -272 -146q-128 0 -201.5 74.5t-73.5 202.5zM332 1163l204 348h201l-285 -348h-120z" />
<glyph unicode="&#xfb;" horiz-adv-x="948" d="M106 252v776h179v-655q0 -126 24 -179q37 -81 146 -81q200 0 200 321v594h176v-866q0 -42 10 -162h-179l-9 121q-105 -146 -272 -146q-128 0 -201.5 74.5t-73.5 202.5zM180 1163l197 348h196l197 -348h-123l-172 230l-174 -230h-121z" />
<glyph unicode="&#xfc;" horiz-adv-x="948" d="M106 252v776h179v-655q0 -126 24 -179q37 -81 146 -81q200 0 200 321v594h176v-866q0 -42 10 -162h-179l-9 121q-105 -146 -272 -146q-128 0 -201.5 74.5t-73.5 202.5zM219 1223v209h182v-209h-182zM549 1223v209h182v-209h-182z" />
<glyph unicode="&#xfd;" horiz-adv-x="428" d="M129 0v1028h170v-1028h-170z" />
<glyph unicode="&#xfe;" horiz-adv-x="877" d="M76 313h192q6 -192 174 -192q70 0 116 33q52 37 52 104q0 88 -149 164l-187 96q-184 94 -184 242q0 143 110 223q98 72 246 72q144 0 234 -64q104 -73 104 -211v-18h-188q0 162 -166 162q-63 0 -107 -32q-49 -36 -49 -97q0 -73 105 -125l170 -84q123 -61 175 -112 q77 -76 77 -185q0 -152 -109 -237q-100 -77 -256 -77q-358 0 -360 338zM184 -326q171 -39 248 -39q119 0 119 82q0 86 -131 86q-9 0 -27 -1h-27v198h76v-102h29q223 0 223 -181q0 -188 -250 -188q-105 0 -260 45v100z" />
<glyph unicode="&#xff;" horiz-adv-x="930" d="M20 1028h207l246 -813l244 813h190l-473 -1417h-174l113 389zM209 1223v209h182v-209h-182zM539 1223v209h182v-209h-182z" />
<glyph unicode="&#x152;" horiz-adv-x="1632" d="M109 737q0 229 11 317q23 199 107 292q118 131 402 131q17 0 51 -1t51 -1h823v-162h-540v-473h540v-166h-540v-512h540v-162h-823q-18 0 -54 -1t-54 -1q-278 0 -396 129q-84 92 -107 292q-11 89 -11 318zM299 737q0 -280 23 -369q54 -206 251 -206h246v1151h-246 q-147 0 -213 -97q-52 -76 -61 -225q0 3 0 -254z" />
<glyph unicode="&#x153;" horiz-adv-x="1509" d="M90 512q0 250 68 374q90 165 317 165q208 0 293 -138q97 138 289 138q201 0 291 -111q82 -100 82 -307v-160h-572v-70q0 -278 203 -278q167 0 192 197h177q-8 -165 -106 -256t-263 -91q-209 0 -295 140q-91 -140 -291 -140q-227 0 -317 164q-68 123 -68 373zM270 514 q0 -170 26 -250q46 -139 179 -139q134 0 179 138q26 79 26 249q0 168 -27 249q-46 140 -178 140t-178 -139q-27 -81 -27 -248zM858 606h397v88q0 238 -196 238q-201 0 -201 -238v-88z" />
<glyph unicode="&#x178;" horiz-adv-x="977" d="M-10 1475h223l281 -695l294 695h197l-410 -875v-600h-198v618zM233 1669v209h182v-209h-182zM563 1669v209h182v-209h-182z" />
<glyph unicode="&#x2c6;" horiz-adv-x="1024" d="M217 1163l197 348h196l197 -348h-123l-172 230l-174 -230h-121z" />
<glyph unicode="&#x2dc;" horiz-adv-x="1024" d="M240 1210q35 203 188 203q28 0 47 -6l91 -29q31 -10 46 -10q67 0 90 74h82q-37 -209 -182 -209q-28 0 -61 10l-89 27q-26 8 -46 8q-60 0 -84 -68h-82z" />
<glyph unicode="&#x2000;" horiz-adv-x="986" />
<glyph unicode="&#x2001;" horiz-adv-x="1972" />
<glyph unicode="&#x2002;" horiz-adv-x="986" />
<glyph unicode="&#x2003;" horiz-adv-x="1972" />
<glyph unicode="&#x2004;" horiz-adv-x="657" />
<glyph unicode="&#x2005;" horiz-adv-x="493" />
<glyph unicode="&#x2006;" horiz-adv-x="328" />
<glyph unicode="&#x2007;" horiz-adv-x="328" />
<glyph unicode="&#x2008;" horiz-adv-x="246" />
<glyph unicode="&#x2009;" horiz-adv-x="394" />
<glyph unicode="&#x200a;" horiz-adv-x="109" />
<glyph unicode="&#x2010;" horiz-adv-x="569" d="M68 442v150h434v-150h-434z" />
<glyph unicode="&#x2011;" horiz-adv-x="569" d="M68 442v150h434v-150h-434z" />
<glyph unicode="&#x2012;" horiz-adv-x="569" d="M68 442v150h434v-150h-434z" />
<glyph unicode="&#x2013;" horiz-adv-x="1024" d="M0 455v118h1024v-118h-1024z" />
<glyph unicode="&#x2014;" horiz-adv-x="2048" d="M0 455v118h2048v-118h-2048z" />
<glyph unicode="&#x2018;" horiz-adv-x="426" d="M63 1073l156 402h143l-88 -402h-211z" />
<glyph unicode="&#x2019;" horiz-adv-x="426" d="M63 1073l89 402h210l-155 -402h-144z" />
<glyph unicode="&#x201a;" horiz-adv-x="426" d="M16 -211l90 401h213l-157 -401h-146z" />
<glyph unicode="&#x201c;" horiz-adv-x="754" d="M63 1073l158 402h148l-90 -402h-216zM391 1073l158 402h147l-90 -402h-215z" />
<glyph unicode="&#x201d;" horiz-adv-x="754" d="M63 1073l91 402h215l-158 -402h-148zM391 1073l88 402h217l-159 -402h-146z" />
<glyph unicode="&#x201e;" horiz-adv-x="754" d="M63 -211l91 401h215l-158 -401h-148zM391 -211l88 401h217l-159 -401h-146z" />
<glyph unicode="&#x2022;" horiz-adv-x="1208" d="M307 762q0 124 86.5 209.5t210.5 85.5q123 0 209 -86t86 -209t-87 -210t-210 -87q-124 0 -209.5 86.5t-85.5 210.5z" />
<glyph unicode="&#x2026;" horiz-adv-x="2048" d="M243 0v227h195v-227h-195zM925 0v227h195v-227h-195zM1609 0v227h195v-227h-195z" />
<glyph unicode="&#x202f;" horiz-adv-x="394" />
<glyph unicode="&#x2039;" horiz-adv-x="498" d="M78 512l186 397h156l-156 -397l156 -393h-156z" />
<glyph unicode="&#x203a;" horiz-adv-x="498" d="M78 119l155 393l-155 397h155l187 -397l-187 -393h-155z" />
<glyph unicode="&#x205f;" horiz-adv-x="493" />
<glyph unicode="&#x2122;" horiz-adv-x="1706" d="M254 1389v67h440v-67h-172v-467h-94v467h-174zM819 922v534h129l160 -405l149 405h132v-534h-82v458l-172 -458h-54l-180 458v-458h-82z" />
<glyph unicode="&#x25fc;" horiz-adv-x="1030" d="M0 0v1030h1030v-1030h-1030z" />
</font>
</defs>
</svg>
